HIERARCHY
ROOT Hips
{
	OFFSET -0.001795 -0.223333 0.028219
	CHANNELS 6 Xposition Yposition Zposition Zrotation Yrotation Xrotation 
	JOINT LeftUpLeg
	{
		OFFSET 0.069520 -0.091406 -0.006815
		CHANNELS 3 Zrotation Yrotation Xrotation
		JOINT LeftLeg
		{
			OFFSET 0.034277 -0.375199 -0.004496
			CHANNELS 3 Zrotation Yrotation Xrotation
			JOINT LeftFoot
			{
				OFFSET -0.013596 -0.397961 -0.043693
				CHANNELS 3 Zrotation Yrotation Xrotation
				JOINT LeftToe
				{
					OFFSET 0.026358 -0.055791 0.119288
					CHANNELS 3 Zrotation Yrotation Xrotation
					End Site
					{
						OFFSET 0.000000 0.000000 0.000000
					}
				}
			}
		}
	}
	JOINT RightUpLeg
	{
		OFFSET -0.067670 -0.090522 -0.004320
		CHANNELS 3 Zrotation Yrotation Xrotation
		JOINT RightLeg
		{
			OFFSET -0.038290 -0.382569 -0.008850
			CHANNELS 3 Zrotation Yrotation Xrotation
			JOINT RightFoot
			{
				OFFSET 0.015774 -0.398415 -0.042312
				CHANNELS 3 Zrotation Yrotation Xrotation
				JOINT RightToe
				{
					OFFSET -0.025372 -0.048144 0.123348
					CHANNELS 3 Zrotation Yrotation Xrotation
					End Site
					{
						OFFSET 0.000000 0.000000 0.000000
					}
				}
			}
		}
	}
	JOINT Spine
	{
		OFFSET -0.002533 0.108963 -0.026696
		CHANNELS 3 Zrotation Yrotation Xrotation
		JOINT Spine1
		{
			OFFSET 0.005487 0.135180 0.001092
			CHANNELS 3 Zrotation Yrotation Xrotation
			JOINT Spine2
			{
				OFFSET 0.001457 0.052922 0.025425
				CHANNELS 3 Zrotation Yrotation Xrotation
				JOINT Neck
				{
					OFFSET -0.002778 0.213870 -0.042857
					CHANNELS 3 Zrotation Yrotation Xrotation
					JOINT Head
					{
						OFFSET 0.005152 0.064970 0.051349
						CHANNELS 3 Zrotation Yrotation Xrotation
						End Site
						{
							OFFSET 0.000000 0.000000 0.000000
						}
					}
				}
				JOINT LeftShoulder
				{
					OFFSET 0.078845 0.121749 -0.034090
					CHANNELS 3 Zrotation Yrotation Xrotation
					JOINT LeftArm
					{
						OFFSET 0.090977 0.030469 -0.008868
						CHANNELS 3 Zrotation Yrotation Xrotation
						JOINT LeftForeArm
						{
							OFFSET 0.259612 -0.012772 -0.027456
							CHANNELS 3 Zrotation Yrotation Xrotation
							JOINT LeftHand
							{
								OFFSET 0.249234 0.008986 -0.001171
								CHANNELS 3 Zrotation Yrotation Xrotation
								End Site
								{
									OFFSET 0.000000 0.000000 0.000000
								}
							}
						}
					}
				}
				JOINT RightShoulder
				{
					OFFSET -0.081759 0.118833 -0.038615
					CHANNELS 3 Zrotation Yrotation Xrotation
					JOINT RightArm
					{
						OFFSET -0.096012 0.032551 -0.009143
						CHANNELS 3 Zrotation Yrotation Xrotation
						JOINT RightForeArm
						{
							OFFSET -0.253742 -0.013329 -0.021401
							CHANNELS 3 Zrotation Yrotation Xrotation
							JOINT RightHand
							{
								OFFSET -0.255298 0.007772 -0.005559
								CHANNELS 3 Zrotation Yrotation Xrotation
								End Site
								{
									OFFSET 0.000000 0.000000 0.000000
								}
							}
						}
					}
				}
			}
		}
	}
}
MOTION
Frames: 15
Frame Time: 0.050000
0.000000 0.941972 0.000000 -0.419510 -4.946664 -1.946870 0.197041 0.267621 2.810615 -1.095231 0.060817 3.493034 2.027226 6.329496 7.266994 0.000000 0.000000 0.000000 3.266213 -0.297408 1.728134 -2.627394 0.535510 4.140111 -1.375037 -5.633111 4.733685 0.000000 0.000000 0.000000 4.583022 -0.227740 2.769556 -2.502907 1.201625 -0.453219 -3.123193 4.840891 1.798071 6.057157 -2.896679 -11.329849 0.000000 0.000000 0.000000 -27.486867 -3.459428 -1.828425 -47.928716 2.707377 -6.177751 -10.098374 -22.640850 2.706672 0.000000 0.000000 0.000000 28.863673 -2.426933 -3.433012 53.629761 -3.937699 -6.965611 8.194489 25.190248 2.646492 0.000000 0.000000 0.000000 
0.000052 0.941047 0.000077 -0.443714 -5.211581 -2.637463 0.148230 0.295489 3.069611 -1.019926 0.032902 4.461145 2.238645 6.604038 6.861120 0.000000 0.000000 0.000000 3.239376 -0.334246 2.079487 -2.581135 0.580772 4.874399 -1.375843 -5.451690 4.272049 0.000000 0.000000 0.000000 4.293014 -0.212538 2.777697 -2.361337 1.151860 0.538440 -2.898784 4.843367 1.896677 5.562102 -2.539646 -11.627511 0.000000 0.000000 0.000000 -27.398191 -3.820988 -1.528267 -48.439830 2.967907 -6.390668 -10.324219 -22.362331 2.725939 0.000000 0.000000 0.000000 28.765921 -1.155637 -2.644045 53.252584 -3.617637 -6.781413 8.328726 24.058614 2.522251 0.000000 0.000000 0.000000 
0.000150 0.939869 0.000037 -0.297559 -5.339675 -2.699561 0.140906 0.227100 2.357616 -1.352005 0.068476 5.848613 2.401714 6.803963 6.478588 0.000000 0.000000 0.000000 2.640196 -0.236707 1.459517 -1.794003 0.547215 6.095667 -1.464210 -5.393888 3.664484 0.000000 0.000000 0.000000 3.777560 -0.187100 2.579553 -2.207010 1.054458 -0.734456 -2.478829 4.835336 3.366853 5.506213 -2.700452 -10.676021 0.000000 0.000000 0.000000 -27.047202 -3.827329 -1.319049 -48.366253 3.256002 -6.653816 -11.368625 -22.679962 3.000192 0.000000 0.000000 0.000000 27.710778 -0.291468 -2.022770 53.542415 -3.481273 -6.873991 9.768147 23.681476 2.760567 0.000000 0.000000 0.000000 
0.000096 0.940530 -0.000009 -0.034927 -5.308396 -2.187097 -0.233972 0.178208 1.801776 -1.206455 0.044422 5.750390 2.363573 6.814735 6.849208 0.000000 0.000000 0.000000 2.604508 -0.169635 0.870296 -2.217720 0.610781 6.085777 -1.481709 -5.498854 3.813673 0.000000 0.000000 0.000000 4.020312 -0.158367 2.054713 -2.351699 1.136909 0.034833 -2.784042 4.875523 2.340287 5.454152 -2.584871 -10.959800 0.000000 0.000000 0.000000 -27.673330 -3.225987 -1.874960 -47.655488 3.226130 -6.406219 -12.089774 -22.291982 3.068478 0.000000 0.000000 0.000000 27.685419 -0.434778 -2.093129 53.187385 -3.625426 -6.793415 11.043538 23.284373 2.945423 0.000000 0.000000 0.000000 
0.000198 0.940521 -0.000072 -0.250108 -4.943184 -2.143398 -0.239157 0.168304 1.707037 -0.728195 -0.042856 5.813163 2.258399 6.605515 6.672083 0.000000 0.000000 0.000000 2.444524 -0.146445 0.722481 -1.451018 0.507965 6.336935 -1.582804 -5.758202 3.930097 0.000000 0.000000 0.000000 4.314167 -0.209517 2.647100 -2.125064 1.016290 -0.729700 -2.975765 4.854398 3.043281 5.123251 -2.325057 -11.226154 0.000000 0.000000 0.000000 -28.131736 -3.240210 -1.958756 -47.235429 2.719343 -6.188125 -12.728088 -22.388605 3.207305 0.000000 0.000000 0.000000 28.015051 -0.585352 -2.117330 52.524711 -3.328219 -6.675001 11.565505 23.542946 3.102131 0.000000 0.000000 0.000000 
0.000301 0.940526 -0.000097 -0.450478 -5.091861 -2.090961 -0.578147 0.130503 1.287256 0.178835 -0.216899 6.514122 2.450134 6.925214 6.583012 0.000000 0.000000 0.000000 2.760588 -0.139442 0.575914 -1.654134 0.550485 6.502225 -1.530677 -5.670426 3.983071 0.000000 0.000000 0.000000 4.331548 -0.212568 2.673130 -2.192141 1.058516 -0.022701 -2.952413 4.982075 2.693554 5.142429 -2.381302 -10.842569 0.000000 0.000000 0.000000 -28.458810 -3.330759 -1.990236 -46.737865 2.154272 -5.856058 -12.371101 -22.128824 3.092860 0.000000 0.000000 0.000000 28.477938 -0.468482 -2.060814 52.005454 -3.095452 -6.494541 12.124667 24.263003 3.322930 0.000000 0.000000 0.000000 
0.000343 0.940587 -0.000149 -0.817414 -5.910712 -2.318220 -0.346823 0.121972 1.219722 0.296414 -0.251481 7.284241 2.868733 7.649578 6.599317 0.000000 0.000000 0.000000 2.961038 -0.119374 0.354476 -1.433632 0.569758 7.298978 -1.207895 -4.995684 4.007053 0.000000 0.000000 0.000000 4.543384 -0.253969 3.194089 -2.689027 1.309669 0.369358 -2.507554 5.372340 1.733785 5.060984 -2.395417 -10.296194 0.000000 0.000000 0.000000 -28.535107 -3.494100 -1.914171 -46.669737 1.201608 -5.416795 -12.115949 -20.754357 2.843096 0.000000 0.000000 0.000000 27.895567 0.083588 -1.723031 52.111947 -2.467504 -6.145571 11.867725 23.860971 3.191463 0.000000 0.000000 0.000000 
0.000400 0.941162 -0.000322 -0.593536 -6.044392 -2.517056 -0.529579 0.139814 1.380774 0.161449 -0.225926 7.321808 2.865388 7.703784 6.932046 0.000000 0.000000 0.000000 2.709809 -0.046714 -0.190311 -1.413674 0.650922 8.573992 -1.198951 -5.007292 4.060750 0.000000 0.000000 0.000000 4.265742 -0.319673 4.194190 -2.249596 1.079579 -0.363593 -3.526680 5.904297 1.817030 6.212000 -3.246962 -9.581663 0.000000 0.000000 0.000000 -27.509370 -4.766496 -1.247894 -47.265092 1.209856 -5.452520 -11.355142 -20.798699 2.686550 0.000000 0.000000 0.000000 28.104736 0.434572 -1.245159 51.868389 -1.380267 -5.760053 11.638267 23.782565 3.167618 0.000000 0.000000 0.000000 
0.000487 0.942209 -0.000621 -0.559562 -5.918255 -2.233101 -0.850778 0.151903 1.465839 0.680885 -0.301089 6.532378 2.762471 7.599110 7.306914 0.000000 0.000000 0.000000 2.710893 -0.011462 -0.498744 -1.465846 0.655043 8.515180 -1.175172 -5.125284 4.452505 0.000000 0.000000 0.000000 4.441836 -0.348491 4.442277 -2.078340 0.988404 -0.862143 -4.331937 6.274152 2.182221 6.903795 -3.708418 -9.495209 0.000000 0.000000 0.000000 -26.637192 -5.333753 -0.995920 -48.111046 0.337820 -5.224327 -10.803078 -20.602035 2.543673 0.000000 0.000000 0.000000 28.168133 -0.061619 -1.329732 52.458428 -0.773055 -5.669023 11.410485 23.949260 3.187248 0.000000 0.000000 0.000000 
0.000568 0.942797 -0.001031 -0.488690 -5.681812 -1.520705 -1.521563 0.081083 0.734747 1.731347 -0.480823 6.322487 2.713929 7.569022 7.551653 0.000000 0.000000 0.000000 2.897684 0.016296 -0.793887 -1.914119 0.667248 7.599736 -1.214306 -5.317739 4.716353 0.000000 0.000000 0.000000 4.460180 -0.351033 4.329739 -1.877655 0.895754 -0.635212 -4.957676 6.512901 1.772338 7.661585 -4.433220 -8.237678 0.000000 0.000000 0.000000 -26.670023 -5.466307 -1.124158 -48.004568 -0.115959 -4.939508 -10.523737 -20.124778 2.414473 0.000000 0.000000 0.000000 28.596236 -0.887292 -1.720986 52.366969 -0.312543 -5.476267 11.402770 24.271241 3.259485 0.000000 0.000000 0.000000 
0.000615 0.942224 -0.001722 -0.361817 -5.504620 -1.490530 -1.825708 0.049364 0.427374 2.039254 -0.550848 6.684333 2.702131 7.521074 7.374715 0.000000 0.000000 0.000000 2.910365 0.033918 -0.935728 -2.137603 0.712748 7.729061 -1.357530 -5.525837 4.487930 0.000000 0.000000 0.000000 3.945554 -0.351367 4.598152 -1.522695 0.723686 -1.010859 -4.749943 6.192615 2.060116 7.372565 -4.061317 -9.237983 0.000000 0.000000 0.000000 -26.653943 -5.091602 -1.222253 -48.349312 -0.015834 -5.082270 -10.630769 -20.305984 2.469226 0.000000 0.000000 0.000000 28.111771 -0.514698 -1.557717 52.656485 -0.622412 -5.611113 11.695800 24.904933 3.404473 0.000000 0.000000 0.000000 
0.000608 0.941814 -0.002901 -0.597338 -6.355918 -1.676267 -0.892493 0.066950 0.645825 0.721209 -0.309858 6.721953 3.025113 8.029132 7.264842 0.000000 0.000000 0.000000 2.685232 0.053120 -1.081641 -1.409246 0.624513 8.156524 -1.011003 -4.740963 4.348547 0.000000 0.000000 0.000000 4.207867 -0.380130 4.896043 -1.353577 0.642090 -0.790155 -5.203656 7.086259 2.311415 8.337939 -4.524355 -10.144595 0.000000 0.000000 0.000000 -26.171318 -6.444493 -0.529458 -48.533124 -0.324878 -4.967067 -9.303480 -20.896140 2.287466 0.000000 0.000000 0.000000 27.887711 0.425211 -0.708675 52.448541 0.181106 -5.342930 10.555418 25.323186 3.255047 0.000000 0.000000 0.000000 
0.000513 0.941650 -0.003817 -0.516543 -6.879426 -2.272785 -0.399966 0.122176 1.210705 -0.347679 -0.112594 6.845619 3.160959 8.261638 7.332095 0.000000 0.000000 0.000000 2.718457 0.013103 -0.736599 -1.685695 0.701111 8.531121 -0.848932 -4.323665 4.173007 0.000000 0.000000 0.000000 4.289487 -0.447896 5.908358 -1.460766 0.693322 -0.616071 -5.516083 7.480318 2.512493 9.455074 -5.257679 -10.319730 0.000000 0.000000 0.000000 -25.533295 -7.398301 0.044348 -48.721736 -0.400355 -4.978553 -8.570014 -20.705127 2.130041 0.000000 0.000000 0.000000 27.614453 0.816491 -0.357494 52.223076 -0.153252 -5.508865 10.455318 25.694900 3.299231 0.000000 0.000000 0.000000 
0.000583 0.942847 -0.004559 -0.367594 -7.008840 -2.852916 -0.578486 0.147547 1.446958 -0.333520 -0.123996 7.420764 3.145386 8.322671 7.864311 0.000000 0.000000 0.000000 2.963908 0.021711 -0.816955 -2.390871 0.912279 9.650702 -0.801661 -4.382605 4.499344 0.000000 0.000000 0.000000 4.131629 -0.536217 7.409557 -1.638971 0.773458 -0.937962 -5.479289 7.553536 3.703782 10.009999 -6.131462 -8.443443 0.000000 0.000000 0.000000 -23.799627 -8.175155 0.752469 -48.867267 1.440449 -5.901565 -8.757670 -22.176044 2.334605 0.000000 0.000000 0.000000 26.931890 0.651770 -0.423046 52.165395 -2.022274 -6.373350 10.517926 27.662786 3.626006 0.000000 0.000000 0.000000 
0.000640 0.943011 -0.006137 -0.456156 -7.125149 -2.581529 -0.665168 0.059918 0.593172 -0.054560 -0.190852 8.250244 3.264709 8.539087 7.968352 0.000000 0.000000 0.000000 3.085829 0.119927 -1.653604 -2.397143 0.976422 10.423680 -0.776359 -4.396691 4.627931 0.000000 0.000000 0.000000 4.507377 -0.641766 8.530758 -2.283133 1.063213 -1.722371 -5.455784 7.078089 4.765473 9.534324 -5.847449 -8.518954 0.000000 0.000000 0.000000 -22.549570 -7.461467 0.695998 -48.046107 4.449361 -7.123449 -9.599768 -23.082479 2.634403 0.000000 0.000000 0.000000 25.569458 -0.004055 -0.945198 51.936645 -4.759544 -7.483469 12.348599 29.057349 4.283937 0.000000 0.000000 0.000000 
